<svg aria-hidden="true" style="position: absolute; width: 0; height: 0; overflow: hidden;" version="1.1" xmlns="http://www.w3.org/2000/svg" xmlns:xlink="http://www.w3.org/1999/xlink">
<defs>
<symbol id="icon-twiter" viewBox="0 0 38 32">
<path fill="#fff" style="fill: var(--color1, #fff)" d="M37.647 3.621c-1.4 0.614-2.892 1.021-4.447 1.219 1.6-0.955 2.821-2.456 3.395-4.266-1.492 0.889-3.139 1.518-4.894 1.868-1.416-1.508-3.435-2.442-5.638-2.442-4.273 0-7.713 3.468-7.713 7.72 0 0.612 0.052 1.2 0.179 1.76-6.416-0.313-12.094-3.388-15.908-8.073-0.666 1.155-1.056 2.478-1.056 3.901 0 2.673 1.376 5.042 3.428 6.414-1.24-0.024-2.456-0.384-3.487-0.951 0 0.024 0 0.054 0 0.085 0 3.751 2.675 6.866 6.184 7.584-0.628 0.172-1.313 0.254-2.024 0.254-0.494 0-0.993-0.028-1.461-0.132 1 3.056 3.838 5.304 7.212 5.376-2.626 2.054-5.96 3.292-9.569 3.292-0.633 0-1.24-0.028-1.847-0.106 3.419 2.205 7.471 3.464 11.84 3.464 14.202 0 21.967-11.765 21.967-21.962 0-0.341-0.012-0.671-0.028-0.998 1.532-1.087 2.819-2.445 3.868-4.007z"></path>
</symbol>
<symbol id="icon-twiter-one" viewBox="0 0 32 32">
<path fill="#fff" style="fill: var(--color1, #fff)" d="M32 5.478c-1.19 0.522-2.458 0.868-3.78 1.036 1.36-0.812 2.398-2.088 2.886-3.626-1.268 0.756-2.668 1.29-4.16 1.588-1.204-1.282-2.92-2.076-4.792-2.076-3.632 0-6.556 2.948-6.556 6.562 0 0.52 0.044 1.020 0.152 1.496-5.454-0.266-10.28-2.88-13.522-6.862-0.566 0.982-0.898 2.106-0.898 3.316 0 2.272 1.17 4.286 2.914 5.452-1.054-0.020-2.088-0.326-2.964-0.808 0 0.020 0 0.046 0 0.072 0 3.188 2.274 5.836 5.256 6.446-0.534 0.146-1.116 0.216-1.72 0.216-0.42 0-0.844-0.024-1.242-0.112 0.85 2.598 3.262 4.508 6.13 4.57-2.232 1.746-5.066 2.798-8.134 2.798-0.538 0-1.054-0.024-1.57-0.090 2.906 1.874 6.35 2.944 10.064 2.944 12.072 0 18.672-10 18.672-18.668 0-0.29-0.010-0.57-0.024-0.848 1.302-0.924 2.396-2.078 3.288-3.406z"></path>
</symbol>
<symbol id="icon-checkmark" viewBox="0 0 32 32">
<path fill="#fff" style="fill: var(--color1, #fff)" d="M12.636 31.213c1.395 0 2.449-0.536 3.163-1.607l15.448-23.28c0.257-0.379 0.446-0.753 0.569-1.121 0.123-0.379 0.184-0.742 0.184-1.088 0-0.96-0.335-1.752-1.004-2.377-0.658-0.636-1.473-0.954-2.444-0.954-0.669 0-1.238 0.134-1.707 0.402-0.457 0.257-0.893 0.703-1.305 1.339l-12.971 20.368-6.494-7.782c-0.703-0.815-1.584-1.222-2.644-1.222-0.993 0-1.813 0.318-2.46 0.954s-0.971 1.434-0.971 2.393c0 0.435 0.067 0.848 0.201 1.238 0.145 0.379 0.407 0.775 0.787 1.188l8.619 10.159c0.792 0.926 1.802 1.389 3.029 1.389z"></path>
</symbol>
<symbol id="icon-close" viewBox="0 0 32 32">
<path fill="none" stroke="#fff" style="stroke: var(--color1, #fff)" stroke-linejoin="round" stroke-linecap="round" stroke-miterlimit="4" stroke-width="4.5714" d="M29.334 2.667l-26.667 26.667M2.667 2.667l26.667 26.667"></path>
</symbol>
<symbol id="icon-facebook" viewBox="0 0 32 32">
<path d="M19.52 4.64c0.24 0 0.48 0 0.96 0v3.6c-0.24 0-0.72 0-1.2 0s-0.96 0-1.2 0.24c-0.24 0.24-0.24 0.48-0.24 1.040 0 0.48 0 0.8 0 1.28h2.64v3.040h-2.64v13.2h-4.080v-13.28h-2.16v-3.040h2.16v-1.040c0-1.76 0.24-3.040 0.72-3.6 0.72-1.040 2.16-1.52 4.32-1.52 0.24 0.080 0.48 0.080 0.72 0.080z"></path>
</symbol>
<symbol id="facebook" viewBox="0 0 32 32">
<path fill="none" d="M20.693 0.854c0.32 0 0.64 0 1.28 0v4.8c-0.32 0-0.96 0-1.6 0s-1.28 0-1.6 0.32c-0.32 0.32-0.32 0.64-0.32 1.387 0 0.64 0 1.067 0 1.707h3.52v4.053h-3.52v17.6h-5.44v-17.707h-2.88v-4.053h2.88v-1.387c0-2.347 0.32-4.053 0.96-4.8 0.96-1.387 2.88-2.027 5.76-2.027 0.32 0.107 0.64 0.107 0.96 0.107z"></path>
</symbol>
<symbol id="icon-phone" viewBox="0 0 32 32">
<path stroke-linejoin="round" stroke-linecap="round" stroke-miterlimit="4" stroke-width="2.6667" d="M29.334 22.56v4c0.001 0.371-0.075 0.739-0.223 1.079s-0.367 0.646-0.641 0.897-0.597 0.442-0.948 0.561c-0.352 0.119-0.724 0.163-1.094 0.13-4.103-0.446-8.044-1.848-11.507-4.093-3.222-2.047-5.953-4.779-8-8-2.253-3.478-3.656-7.439-4.093-11.56-0.033-0.369 0.010-0.74 0.129-1.091s0.308-0.673 0.558-0.947c0.25-0.273 0.553-0.492 0.892-0.641s0.705-0.227 1.075-0.227h4c0.647-0.006 1.274 0.223 1.765 0.645s0.811 1.008 0.902 1.649c0.169 1.28 0.482 2.537 0.933 3.747 0.179 0.477 0.218 0.996 0.112 1.495s-0.353 0.956-0.712 1.319l-1.693 1.693c1.898 3.338 4.662 6.102 8 8l1.693-1.693c0.363-0.359 0.82-0.605 1.319-0.712s1.017-0.067 1.495 0.112c1.21 0.451 2.466 0.764 3.747 0.933 0.648 0.091 1.239 0.418 1.662 0.917s0.647 1.136 0.631 1.79z"></path>
</symbol>
<symbol id="icon-mail" viewBox="0 0 32 32">
<path stroke-linejoin="round" stroke-linecap="round" stroke-miterlimit="4" stroke-width="2.6667" d="M5.333 5.333h21.333c1.467 0 2.667 1.2 2.667 2.667v16c0 1.467-1.2 2.667-2.667 2.667h-21.333c-1.467 0-2.667-1.2-2.667-2.667v-16c0-1.467 1.2-2.667 2.667-2.667z"></path>
<path stroke-linejoin="round" stroke-linecap="round" stroke-miterlimit="4" stroke-width="2.6667" d="M29.333 8l-13.333 9.333-13.333-9.333"></path>
</symbol>
<symbol id="icon-user" viewBox="0 0 32 32">
<path fill="none" stroke="#fd9222" style="stroke: var(--color2, #fd9222)" stroke-linejoin="round" stroke-linecap="round" stroke-miterlimit="4" stroke-width="2.6667" d="M26.667 28v-2.667c0-1.414-0.562-2.771-1.562-3.771s-2.357-1.562-3.771-1.562h-10.667c-1.415 0-2.771 0.562-3.771 1.562s-1.562 2.357-1.562 3.771v2.667"></path>
<path fill="none" stroke="#fd9222" style="stroke: var(--color2, #fd9222)" stroke-linejoin="round" stroke-linecap="round" stroke-miterlimit="4" stroke-width="2.6667" d="M16 14.667c2.946 0 5.333-2.388 5.333-5.333s-2.388-5.333-5.333-5.333c-2.945 0-5.333 2.388-5.333 5.333s2.388 5.333 5.333 5.333z"></path>
</symbol>
<symbol id="icon-twitter" viewBox="0 0 32 32">
<path fill="#fff" style="fill: var(--color1, #fff)" d="M29.333 7.898c-0.992 0.435-2.048 0.723-3.15 0.863 1.133-0.677 1.998-1.74 2.405-3.022-1.057 0.63-2.223 1.075-3.467 1.323-1.003-1.068-2.433-1.73-3.993-1.73-3.027 0-5.463 2.457-5.463 5.468 0 0.433 0.037 0.85 0.127 1.247-4.545-0.222-8.567-2.4-11.268-5.718-0.472 0.818-0.748 1.755-0.748 2.763 0 1.893 0.975 3.572 2.428 4.543-0.878-0.017-1.74-0.272-2.47-0.673 0 0.017 0 0.038 0 0.060 0 2.657 1.895 4.863 4.38 5.372-0.445 0.122-0.93 0.18-1.433 0.18-0.35 0-0.703-0.020-1.035-0.093 0.708 2.165 2.718 3.757 5.108 3.808-1.86 1.455-4.222 2.332-6.778 2.332-0.448 0-0.878-0.020-1.308-0.075 2.422 1.562 5.292 2.453 8.387 2.453 10.060 0 15.56-8.333 15.56-15.557 0-0.242-0.008-0.475-0.020-0.707 1.085-0.77 1.997-1.732 2.74-2.838z"></path>
</symbol>
<symbol id="icon-instagram" viewBox="0 0 32 32">
<path fill="#fff" style="fill: var(--color1, #fff)" d="M28.717 10.756c-0.016-1.074-0.215-2.14-0.596-3.145-0.667-1.716-2.024-3.073-3.743-3.737-0.994-0.373-2.044-0.573-3.108-0.596-1.367-0.061-1.801-0.078-5.273-0.078s-3.916 0-5.274 0.078c-1.062 0.023-2.112 0.223-3.106 0.596-1.719 0.664-3.078 2.021-3.743 3.737-0.374 0.992-0.576 2.041-0.596 3.101-0.061 1.367-0.080 1.8-0.080 5.265s0 3.909 0.080 5.265c0.021 1.062 0.222 2.109 0.596 3.104 0.667 1.714 2.024 3.071 3.744 3.735 0.989 0.386 2.040 0.605 3.106 0.639 1.369 0.061 1.803 0.079 5.274 0.079s3.917 0 5.274-0.079c1.062-0.021 2.112-0.221 3.108-0.595 1.719-0.666 3.076-2.022 3.743-3.737 0.374-0.993 0.574-2.041 0.596-3.104 0.061-1.365 0.080-1.798 0.080-5.265-0.003-3.466-0.003-3.906-0.082-5.264zM15.99 22.531c-3.631 0-6.572-2.936-6.572-6.561s2.941-6.561 6.572-6.561c3.628 0 6.572 2.936 6.572 6.561s-2.944 6.561-6.572 6.561zM22.823 10.696c-0.849 0-1.532-0.684-1.532-1.53s0.684-1.53 1.532-1.53c0.846 0 1.531 0.684 1.531 1.53s-0.685 1.53-1.531 1.53z"></path>
<path fill="#fff" style="fill: var(--color1, #fff)" d="M15.992 19.976c2.211 0 4.004-1.793 4.004-4.004s-1.793-4.004-4.004-4.004c-2.211 0-4.004 1.793-4.004 4.004s1.793 4.004 4.004 4.004z"></path>
</symbol>
<symbol id="icon-play-video" viewBox="0 0 32 32">
<path fill="#f5f4f4" style="fill: var(--color3, #f5f4f4)" d="M11.886 23.771v-13.714l12.8 6.857-12.8 6.857z"></path>
<path fill="none" stroke="#fff" style="stroke: var(--color1, #fff)" stroke-linejoin="miter" stroke-linecap="butt" stroke-miterlimit="4" stroke-width="0.9143" d="M31.543 16c0 8.584-6.959 15.543-15.543 15.543s-15.543-6.959-15.543-15.543c0-8.584 6.959-15.543 15.543-15.543s15.543 6.959 15.543 15.543z"></path>
</symbol>
<symbol id="icon-arrows-right" viewBox="0 0 32 32">
<path fill="none" stroke="#fafafa" style="stroke: var(--color4, #fafafa)" stroke-linejoin="round" stroke-linecap="round" stroke-miterlimit="4" stroke-width="1.3333" d="M9.143 16h13.714M22.857 16l-3.429-3.429M22.857 16l-3.429 3.429"></path>
<path fill="none" stroke="#fafafa" style="stroke: var(--color4, #fafafa)" stroke-linejoin="round" stroke-linecap="round" stroke-miterlimit="4" stroke-width="1.3333" d="M16 30.857c8.205 0 14.857-6.652 14.857-14.857s-6.652-14.857-14.857-14.857c-8.205 0-14.857 6.652-14.857 14.857s6.652 14.857 14.857 14.857z"></path>
</symbol>
<symbol id="icon-utensil-spoon" viewBox="0 0 32 32">
<path fill="#fd9222" style="fill: var(--color2, #fd9222)" d="M15.452 14.106c-0.783-0.95-1.177-2.116-1.177-3.282 0-4.324 5.181-8.642 10.362-8.642 2.86 0 5.181 2.321 5.181 5.182 0 5.182-4.318 10.364-8.646 10.364-1.166 0-2.332-0.394-3.281-1.177l-12.758 12.761c-0.675 0.675-1.77 0.675-2.445 0s-0.675-1.771 0-2.445l12.764-12.761z"></path>
</symbol>
<symbol id="icon-benefits-coin" viewBox="0 0 32 32">
<path fill="#fd9222" style="fill: var(--color2, #fd9222)" d="M16 2.667c-7.333 0-13.333 6-13.333 13.333s6 13.333 13.333 13.333c7.333 0 13.333-6 13.333-13.333s-6-13.333-13.333-13.333zM16 26.667c-5.867 0-10.667-4.8-10.667-10.667s4.8-10.667 10.667-10.667c5.867 0 10.667 4.8 10.667 10.667s-4.8 10.667-10.667 10.667z"></path>
<path fill="#fd9222" style="fill: var(--color2, #fd9222)" d="M17.733 14.667h-3.467c-0.667 0-1.2-0.533-1.2-1.2s0.533-1.2 1.2-1.2h4.933c0.8 0 1.333-0.533 1.333-1.333s-0.533-1.333-1.333-1.333h-1.867v-1.2c0-0.8-0.533-1.333-1.333-1.333s-1.333 0.533-1.333 1.333v1.2h-0.4c-2.133 0-3.867 1.733-3.867 3.867s1.733 3.867 3.867 3.867h3.333c0.667 0 1.2 0.533 1.2 1.2s-0.533 1.2-1.2 1.2h-4.933c-0.8 0-1.333 0.533-1.333 1.333s0.533 1.333 1.333 1.333h2v1.2c0 0.8 0.533 1.333 1.333 1.333s1.333-0.533 1.333-1.333v-1.2h0.4c2.133 0 3.867-1.733 3.867-3.867s-1.733-3.867-3.867-3.867z"></path>
</symbol>
<symbol id="icon-fluent-emoji" viewBox="0 0 32 32">
<path fill="#111" style="fill: var(--color5, #111)" d="M13.822 2.413l7.527 7.536 0.080-0.080c0.158-0.154 0.369-0.242 0.589-0.244s0.434 0.080 0.595 0.231l0.873 0.873c0.305 0.305 0.315 0.77 0.083 1.094l-0.004 0.007-0.143 0.192 6.16 6.16c0.55 0.55 0.55 1.43 0 1.98l-9.43 9.43c-0.55 0.55-1.43 0.55-1.98 0l-4.447-4.447c-0.074 0.093-0.167 0.169-0.272 0.224s-0.221 0.086-0.34 0.093c-0.119 0.007-0.237-0.012-0.348-0.054s-0.212-0.108-0.296-0.192l-2.6-2.6c-0.154-0.158-0.242-0.369-0.244-0.589s0.080-0.434 0.231-0.595l0.006-0.007 0.077-0.076-7.527-7.527c-0.55-0.55-0.55-1.43 0-1.98l9.43-9.43c0.55-0.55 1.43-0.55 1.98 0v0.001zM20.404 10.893l-1.756-1.755c-0.055-0.057-0.121-0.102-0.194-0.133s-0.151-0.047-0.231-0.047c-0.079 0-0.158 0.016-0.231 0.047s-0.139 0.076-0.194 0.133l-3.58 3.58c-0.057 0.056-0.102 0.123-0.132 0.197s-0.047 0.153-0.047 0.233 0.016 0.159 0.047 0.233c0.031 0.074 0.076 0.141 0.132 0.197l1.749 1.749 0.61-0.61-1.565-1.565 3.21-3.22 1.569 1.574 0.613-0.613zM15.328 15.965l-1.754-1.754c-0.055-0.057-0.121-0.102-0.194-0.133s-0.152-0.047-0.231-0.047c-0.079 0-0.158 0.016-0.231 0.047s-0.139 0.076-0.194 0.133l-3.59 3.59c-0.24 0.23-0.24 0.61 0 0.85l1.752 1.752 0.616-0.616-1.57-1.564 3.22-3.21 1.564 1.563 0.612-0.611zM8.822 8.193l3.58 3.58c0.24 0.24 0.62 0.24 0.85-0.010l3.58-3.58c0.057-0.054 0.102-0.119 0.133-0.192s0.047-0.15 0.047-0.228h0.010c0-0.15-0.060-0.31-0.18-0.43l-3.58-3.58c-0.056-0.057-0.123-0.102-0.197-0.133s-0.153-0.047-0.233-0.047c-0.080 0-0.159 0.016-0.233 0.047s-0.141 0.076-0.197 0.133l-3.58 3.59c-0.24 0.23-0.24 0.61 0 0.85zM3.752 13.263l3.58 3.58c0.24 0.24 0.62 0.24 0.85 0l3.58-3.58c0.058-0.055 0.104-0.122 0.135-0.196s0.046-0.154 0.045-0.234h0.010c0-0.16-0.060-0.31-0.18-0.43l-3.58-3.58c-0.055-0.057-0.121-0.102-0.194-0.133s-0.151-0.047-0.231-0.047c-0.079 0-0.158 0.016-0.231 0.047s-0.139 0.076-0.194 0.133l-3.59 3.59c-0.24 0.23-0.24 0.61 0 0.85zM10.685 22.017l2.362 2.363 9.636-13.040-0.655-0.655-11.343 11.332z"></path>
<path fill="#fd9222" style="fill: var(--color2, #fd9222)" d="M13.822 2.413l7.527 7.536 0.080-0.080c0.158-0.154 0.369-0.242 0.589-0.244s0.434 0.080 0.595 0.231l0.873 0.873c0.305 0.305 0.315 0.77 0.083 1.094l-0.004 0.007-0.143 0.192 6.16 6.16c0.55 0.55 0.55 1.43 0 1.98l-9.43 9.43c-0.55 0.55-1.43 0.55-1.98 0l-4.447-4.447c-0.074 0.093-0.167 0.169-0.272 0.224s-0.221 0.086-0.34 0.093c-0.119 0.007-0.237-0.012-0.348-0.054s-0.212-0.108-0.296-0.192l-2.6-2.6c-0.154-0.158-0.242-0.369-0.244-0.589s0.080-0.434 0.231-0.595l0.006-0.007 0.077-0.076-7.527-7.527c-0.55-0.55-0.55-1.43 0-1.98l9.43-9.43c0.55-0.55 1.43-0.55 1.98 0v0.001zM20.404 10.893l-1.756-1.755c-0.055-0.057-0.121-0.102-0.194-0.133s-0.151-0.047-0.231-0.047c-0.079 0-0.158 0.016-0.231 0.047s-0.139 0.076-0.194 0.133l-3.58 3.58c-0.057 0.056-0.102 0.123-0.132 0.197s-0.047 0.153-0.047 0.233 0.016 0.159 0.047 0.233c0.031 0.074 0.076 0.141 0.132 0.197l1.749 1.749 0.61-0.61-1.565-1.565 3.21-3.22 1.569 1.574 0.613-0.613zM15.328 15.965l-1.754-1.754c-0.055-0.057-0.121-0.102-0.194-0.133s-0.152-0.047-0.231-0.047c-0.079 0-0.158 0.016-0.231 0.047s-0.139 0.076-0.194 0.133l-3.59 3.59c-0.24 0.23-0.24 0.61 0 0.85l1.752 1.752 0.616-0.616-1.57-1.564 3.22-3.21 1.564 1.563 0.612-0.611zM8.822 8.193l3.58 3.58c0.24 0.24 0.62 0.24 0.85-0.010l3.58-3.58c0.057-0.054 0.102-0.119 0.133-0.192s0.047-0.15 0.047-0.228h0.010c0-0.15-0.060-0.31-0.18-0.43l-3.58-3.58c-0.056-0.057-0.123-0.102-0.197-0.133s-0.153-0.047-0.233-0.047c-0.080 0-0.159 0.016-0.233 0.047s-0.141 0.076-0.197 0.133l-3.58 3.59c-0.24 0.23-0.24 0.61 0 0.85zM3.752 13.263l3.58 3.58c0.24 0.24 0.62 0.24 0.85 0l3.58-3.58c0.058-0.055 0.104-0.122 0.135-0.196s0.046-0.154 0.045-0.234h0.010c0-0.16-0.060-0.31-0.18-0.43l-3.58-3.58c-0.055-0.057-0.121-0.102-0.194-0.133s-0.151-0.047-0.231-0.047c-0.079 0-0.158 0.016-0.231 0.047s-0.139 0.076-0.194 0.133l-3.59 3.59c-0.24 0.23-0.24 0.61 0 0.85zM10.685 22.017l2.362 2.363 9.636-13.040-0.655-0.655-11.343 11.332z"></path>
</symbol>
<symbol id="icon-angle-small" viewBox="0 0 32 32">
<path fill="#fd9222" style="fill: var(--color2, #fd9222)" d="M16.947 17.867c-0.124 0.125-0.271 0.224-0.434 0.292s-0.337 0.103-0.513 0.103c-0.176 0-0.35-0.035-0.513-0.103s-0.31-0.167-0.434-0.292l-6.107-6.12c-0.124-0.125-0.271-0.224-0.434-0.292s-0.337-0.103-0.513-0.103c-0.176 0-0.35 0.035-0.513 0.103s-0.31 0.167-0.434 0.292c-0.248 0.25-0.388 0.588-0.388 0.94s0.139 0.69 0.388 0.94l6.12 6.12c0.75 0.749 1.767 1.17 2.827 1.17s2.077-0.421 2.827-1.17l6.12-6.12c0.246-0.248 0.385-0.584 0.387-0.933 0.001-0.175-0.033-0.349-0.099-0.512s-0.164-0.31-0.288-0.435c-0.124-0.125-0.271-0.224-0.434-0.292s-0.337-0.103-0.513-0.103-0.35 0.035-0.513 0.103c-0.163 0.068-0.31 0.167-0.434 0.292l-6.107 6.12z"></path>
</symbol>
<symbol id="icon-menu-icon" viewBox="0 0 32 32">
<path stroke-linejoin="round" stroke-linecap="round" stroke-miterlimit="4" stroke-width="2.2857" d="M4 16h24M4 8h24M4 24h24"></path>
</symbol>
<symbol id="icon-chocolate" viewBox="0 0 32 32">
<path fill="#fcf1e0" style="fill: var(--color6, #fcf1e0)" d="M4.314 20.464l11.333-18.667 9.333 5.333-0.667 4.667 2 2-8.667 15.333-13.333-8.667z"></path>
<path fill="none" stroke="#fd9222" style="stroke: var(--color2, #fd9222)" stroke-linejoin="round" stroke-linecap="round" stroke-miterlimit="4" stroke-width="2.6667" d="M20.37 22.715l-13.569-8.479M10.734 7.785l13.569 8.479M9.652 24.927l11.799-19.354M25.941 13.575c-2.908-1.817-4.034-3.263-2.067-6.489l-9.207-5.753-11.799 19.354 13.569 8.479 9.504-15.591z"></path>
</symbol>
</defs>
</svg>
